<?xml version="1.0" encoding="utf-8"?>
<!-- Designed by Vexels.com - 2020 All Rights Reserved - https://vexels.com/terms-and-conditions/  -->
<svg version="1.1" id="Capa_1" xmlns="http://www.w3.org/2000/svg" xmlns:xlink="http://www.w3.org/1999/xlink" x="0px" y="0px"
	 viewBox="0 0 1200 1200" enable-background="new 0 0 1200 1200" xml:space="preserve">
<path fill="#0076BF" d="M600.001,1149.999c303.754,0,549.999-246.243,549.999-549.999c0-303.757-246.245-550-549.999-550
	C296.245,50.001,50,296.244,50,600.001C50,903.756,296.245,1149.999,600.001,1149.999z M634.748,281.199
	c76.852,0,149.107,29.929,203.446,84.269c54.345,54.339,84.274,126.59,84.274,203.446c0,11.368-9.246,20.614-20.614,20.614
	s-20.614-9.246-20.614-20.614c0-65.836-25.637-127.736-72.191-174.296c-46.56-46.555-108.466-72.197-174.301-72.197
	c-11.368,0-20.614-9.246-20.614-20.614C614.134,290.445,623.38,281.199,634.748,281.199z M626.035,384.53
	c52.505,0,101.859,20.443,138.971,57.565c37.127,37.117,57.571,86.471,57.571,138.971c0,11.368-9.246,20.614-20.614,20.614
	s-20.614-9.246-20.614-20.614c0-41.484-16.156-80.488-45.488-109.82c-29.337-29.332-68.342-45.488-109.825-45.488
	c-11.368,0-20.614-9.246-20.614-20.614C605.421,393.775,614.667,384.53,626.035,384.53z M608.701,482.4
	c30.889,0,59.938,12.029,81.794,33.88c21.846,21.846,33.875,50.895,33.875,81.794c0,11.368-9.246,20.614-20.614,20.614
	s-20.614-9.246-20.614-20.614c0-19.889-7.742-38.583-21.798-52.639c-14.066-14.061-32.766-21.808-52.644-21.808
	c-11.368,0-20.614-9.246-20.614-20.614S597.333,482.4,608.701,482.4z M283.418,453.96c1.082-17.809,8.243-34.936,20.166-48.224
	c21.03-23.429,58.461-52.143,117.376-55.88l2.586-0.165l4.074-1.328c0.699-0.277,1.53-0.421,2.463-0.421
	c11.907,0,36.146,20.662,56.104,55.241c10.771,18.641,18.188,37.634,20.897,53.47c2.442,14.343,0.043,22.256-2.762,24.677
	l-2.869,2.49l-1.861,3.311c-16.642,29.551-41.958,42.881-60.258,48.858l-33.864,11.016l9.038,21.803
	c18.348,44.24,75.097,152.813,205.478,205.323l29.38,11.976l10.989-29.129c5.983-18.284,19.302-43.574,48.805-60.205l3.429-1.936
	l2.533-3.002c5.444-6.457,36.189-5.865,78.041,18.31c39.33,22.709,58.429,49.423,54.803,58.589l-0.949,2.41l-0.533,4.234
	c-3.732,58.92-32.451,96.346-55.886,117.37c-13.288,11.923-30.409,19.089-48.213,20.171c-4.65,0.277-9.422,0.421-14.178,0.421
	c-54.835,0-166.218-19.382-296.028-149.187C294.701,626.682,279.968,510.8,283.418,453.96z"/>
</svg>
